<?xml version="1.0" standalone="no"?>
<!DOCTYPE svg PUBLIC "-//W3C//DTD SVG 20010904//EN"
 "http://www.w3.org/TR/2001/REC-SVG-20010904/DTD/svg10.dtd">
<svg version="1.0" xmlns="http://www.w3.org/2000/svg"
 width="260.000000pt" height="260.000000pt" viewBox="0 0 260.000000 260.000000"
 preserveAspectRatio="xMidYMid meet">
<metadata>
Created by potrace 1.11, written by Peter Selinger 2001-2013
</metadata>
<g transform="translate(0.000000,260.000000) scale(0.100000,-0.100000)"
fill="#000000" stroke="none">
<path d="M1130 2295 c-370 -76 -619 -422 -566 -785 17 -115 116 -367 198 -505
67 -112 103 -170 132 -210 98 -133 143 -194 166 -221 14 -17 34 -42 44 -55 26
-33 69 -83 134 -157 l56 -62 34 32 c136 132 460 593 563 803 108 221 140 341
135 505 -5 176 -66 317 -190 443 -92 94 -238 184 -326 201 -14 2 -44 9 -67 14
-61 14 -238 13 -313 -3z"/>
</g>
</svg>
